<!-- Generated by IcoMoon.io -->
<svg version="1.1" xmlns="http://www.w3.org/2000/svg" width="1065" height="1024" viewBox="0 0 1065 1024">
<g id="icomoon-ignore">
</g>
<path stroke-linejoin="miter" stroke-linecap="butt" stroke-miterlimit="4" stroke-width="40.96" stroke="#000" fill="#000" d="M179.080 671.801c1.64-20.414 1.649-20.414 1.658-20.414h0.020l0.043 0.004 0.1 0.008 0.256 0.025 0.73 0.078c0.58 0.061 1.348 0.156 2.284 0.291 1.869 0.266 4.422 0.696 7.508 1.372 6.152 1.352 14.551 3.715 23.938 7.823 18.824 8.241 42.012 23.708 58.411 52.195l0.064 0.111c18.492 32.592 41.722 42.639 62.611 44.507 17.437 1.561 34.485-2.552 47.193-7.229 2.948-13.763 7.379-25.981 12.869-36.614-44.933-6.074-91.342-16.146-128.689-42.402-49.366-34.705-79.077-94.335-79.077-194.757 0-29.458 4.083-53.019 13.26-74.401 7.594-17.694 18.266-32.919 31.246-48.097-7.219-25.074-15.349-76.307 9.332-138.641l3.606-9.107 9.354-2.909c16.5-5.132 35.309-1.847 51.144 2.887 16.613 4.966 33.821 12.75 49.013 20.599 15.301 7.905 29.15 16.188 39.137 22.465 3.233 2.032 6.077 3.863 8.452 5.415 39.196-10.097 80.758-15.29 121.935-15.29 41.169 0 82.731 5.191 121.922 15.286 2.372-1.556 5.214-3.391 8.446-5.427 9.99-6.294 23.839-14.597 39.145-22.517 15.192-7.863 32.412-15.659 49.037-20.618 15.847-4.727 34.689-7.993 51.216-2.773l9.302 2.937 3.58 9.071c24.654 62.444 16.556 113.534 9.339 138.584 12.964 14.892 24.482 29.952 33.006 47.355 10.457 21.355 15.888 45.108 15.888 75.181 0 101.032-31.171 160.608-81.834 195.084-38.146 25.956-85.279 35.91-130.38 41.988 10.301 19.915 16.613 45.531 16.613 76.73 0 33.751-0.152 71.487-0.303 102.822-0.049 10.707-0.102 20.648-0.147 29.426-0.086 16.97-0.152 29.59-0.152 34.951 0 2.134 0.811 3.305 1.106 3.576l0.004 0.004c0.082 0.074 0.442 0.406 1.556 0.668 1.081 0.25 3.15 0.492 6.517 0.008 190.46-63.963 320.057-245.285 320.057-458.056 0-265.318-215.044-467.521-481.919-467.521-266.178 0-469.121 201.519-469.121 467.521 0 212.492 133.317 394.011 323.471 458.457 3.416 0.483 5.509 0.242 6.599-0.012 1.096-0.258 1.439-0.578 1.501-0.631l0.004-0.004c0.236-0.217 1.065-1.356 1.065-3.609 0-4.297-0.074-15.475-0.17-30.061-0.041-6.181-0.085-12.972-0.13-20.111-0.098-15.671-0.197-32.961-0.253-48.951-14.42 1.491-34.186 2.519-55.192 0.508-40.858-3.908-94.169-20.439-113.015-76.743M179.080 671.801l52.4 103.997M179.080 671.801l1.64-20.414-0.693-0.057-0.696-0.008c-7.017-0.086-13.463 0.369-19.106 1.683-5.364 1.253-12.209 3.785-17.478 9.585-6.101 6.722-7.557 14.95-6.434 21.942 0.975 6.066 3.773 10.92 5.895 14.017 4.315 6.3 10.303 11.674 14.185 14.901 2.12 1.761 4.028 3.224 5.418 4.256 0.699 0.516 1.28 0.934 1.704 1.237l0.519 0.365 0.165 0.115 0.058 0.041 0.032 0.025c0.004 0 0.009 0.004 11.589-16.888M179.080 671.801l-3.2 30.798M212.24 782.844c-0.073-0.217-0.146-0.438-0.219-0.659l19.459-6.386M212.24 782.844c0.003 0.008 0.005 0.012 0.008 0.020l0.146 0.36 0.020 0.053c-0.001-0.004-0.002-0.008 19.066-7.479M212.24 782.844c-0.14-0.34-0.36-0.877-0.657-1.577-0.606-1.43-1.529-3.543-2.743-6.148-2.441-5.243-5.994-12.337-10.447-19.8-9.593-16.077-20.783-29.409-31.030-34.095l-1.606-0.733-1.457-0.999 11.581-16.892M231.48 775.799c0 0-22.8-58.2-55.6-73.2M306.332 793.027c0.082 0.025 0.164 0.053 0.246 0.082 0.029 0.008 0.059 0.020 0.088 0.029l1.061-4.764-0.607 2.028-0.788 2.626zM306.332 793.027c-2.722-0.922-5.434-1.958-8.129-3.113-0.004 0.266 0 0.524 0.011 0.782 1.373 2.171 4.039 4.014 7.378 4.796l0.741-2.466zM263.735 765.809c0.884-0.516 1.763-1.106 2.632-1.778l0.005 0.008 0.423-0.344c0.021-0.016 0.042-0.033 0.063-0.049 0.188-0.156 0.374-0.311 0.556-0.467 0.162-0.139 0.322-0.279 0.48-0.418 0.132-0.119 0.263-0.238 0.392-0.356 1.22-1.126 2.286-2.298 3.213-3.502l-7.763 6.906zM263.735 765.809c-0.047-0.41-0.062-0.811-0.044-1.2l0.044 1.2zM251.97 745.316l0.040 0.053c0.181-0.156 0.367-0.311 0.555-0.463l1.907 2.347c0.199-0.213 0.381-0.434 0.547-0.668 0.891-1.249 1.309-2.818 1.256-4.526-1.072 0.643-2.12 1.38-3.131 2.22-0.397 0.328-0.789 0.676-1.174 1.036zM251.97 745.316c-0.020 0.020-0.041 0.041-0.061 0.057M251.97 745.316l-7.273-9.454M251.909 745.374l-5.78-15.127c1.232 0.025 2.524 0.422 3.747 1.139-0.685 0.754-1.436 1.491-2.259 2.195M251.909 745.374l0.039 0.049c-0.11 0.094-0.218 0.188-0.326 0.287-0.219 0.193-0.433 0.389-0.641 0.59M251.909 745.374c-0.104 0.098-0.206 0.197-0.309 0.299-0.208 0.205-0.415 0.414-0.618 0.627M251.909 745.374l-7.55-9.29M251.909 745.374l-7.549-9.29M244.697 735.863c0.181-0.123 0.36-0.246 0.54-0.373 0.161-0.115 0.322-0.229 0.483-0.348 0.643-0.479 1.277-0.999 1.898-1.561M244.697 735.863c-0.112 0.074-0.224 0.147-0.337 0.221M244.697 735.863l-2.892-3.76c0.259-0.266 0.55-0.5 0.874-0.705 0.33-0.266 0.68-0.483 1.047-0.655M247.618 733.581c-0.338 0.287-0.689 0.573-1.051 0.852l-2.84-3.69M247.618 733.581c0.318-0.291 0.632-0.59 0.944-0.901l-4.835-1.937M243.727 730.743l0.633 5.341M224.51 715.457l-0.829 0.745 0.785-0.786M224.51 715.457c-0.015-0.012-0.029-0.029-0.044-0.041M224.51 715.457c0.086 0.086 0.172 0.172 0.258 0.254l-0.258-0.254zM224.465 715.416c-0.047-0.045-0.095-0.094-0.142-0.139M224.465 715.416l2.515-2.515 0.451-0.406 1.34-1.196-4.447 3.977M250.982 746.299c-0.478 0.5-0.943 1.028-1.396 1.585l0.743 0.606c-0.377-0.061-0.763-0.156-1.155-0.279 0.556-0.655 1.158-1.29 1.809-1.913zM244.36 736.084l-2.906-3.58c-0.837 1.077-1.226 2.519-1.168 4.133 0.247 0.414 0.496 0.827 0.745 1.241 1.122-0.496 2.236-1.090 3.329-1.794zM224.324 715.276c-0.138-0.135-0.276-0.266-0.414-0.397l0.414 0.397zM349.619 798.994c2.537-0.098 5.041-0.27 7.507-0.5 0.080 0.287 0.165 0.565 0.255 0.844-1.774 1.524-4.431 2.523-7.463 2.65-0.211 0.008-0.424 0.012-0.639 0.012-0.27 0.025-0.537 0.041-0.8 0.053-3.758 0.172-6.797-0.922-8.598-2.798-0.025-0.078-0.050-0.16-0.074-0.238 2.926 0.102 5.819 0.102 8.672 0.016 0.177-0.008 0.353-0.012 0.529-0.020 0.091 0 0.181-0.004 0.271-0.008 0.113-0.004 0.227-0.008 0.34-0.012zM316.81 792.564c-0.308 0.881-0.671 1.675-1.070 2.388l2.678-6.644c-0.171-0.541-0.417-1.077-0.731-1.597 0.071 1.389-0.054 2.904-0.469 4.51-0.113 0.442-0.249 0.889-0.408 1.343zM226.965 717.963c0.327 0.348 0.652 0.7 0.976 1.061 1.629 0.614 3.269 0.729 4.643 0.172 0.045-0.020 0.089-0.037 0.134-0.057l-2.952-3.633c0.302-0.246 0.605-0.483 0.911-0.709 0.026-0.020 0.052-0.037 0.078-0.057l-3.79 3.224zM206.351 697.962c2.098 0.905 4.366 0.795 5.956-0.225l-4.867-3.404-1.089 3.629zM400.88 835.4c0 0-7.959 1.704-20.479 3.088l20.517 17.756c-0.024-7.369-0.038-14.418-0.038-20.845zM380.099 796.598c1.939 1.028 4.529 1.458 7.353 1.004l-0.509-4.919c-2.189 0.643-4.454 1.262-6.785 1.843 0.001 0.090 0.001 0.184 0.001 0.274 0 0.61-0.020 1.212-0.061 1.798zM389.438 797.143l-1.171-4.854c2.816-0.852 5.502-1.745 8.042-2.65l0.679-0.086c0.091 0.7 0.127 1.38 0.115 2.036-1.203 2.413-4.017 4.469-7.664 5.554z"></path>
</svg>
