<svg aria-hidden="true" style="position: absolute; width: 0; height: 0; overflow: hidden;" version="1.1" xmlns="http://www.w3.org/2000/svg" xmlns:xlink="http://www.w3.org/1999/xlink">
<defs>
<symbol id="icon-github" viewBox="0 0 33 32">
<path stroke-linejoin="miter" stroke-linecap="butt" stroke-miterlimit="4" stroke-width="1.28" d="M5.596 20.994c0.051-0.638 0.052-0.638 0.052-0.638h0.001l0.001 0 0.003 0 0.008 0.001 0.023 0.002c0.018 0.002 0.042 0.005 0.071 0.009 0.058 0.008 0.138 0.022 0.235 0.043 0.192 0.042 0.455 0.116 0.748 0.244 0.588 0.258 1.313 0.741 1.825 1.631l0.002 0.003c0.578 1.018 1.304 1.332 1.957 1.391 0.545 0.049 1.078-0.080 1.475-0.226 0.092-0.43 0.231-0.812 0.402-1.144-1.404-0.19-2.854-0.505-4.022-1.325-1.543-1.085-2.471-2.948-2.471-6.086 0-0.921 0.128-1.657 0.414-2.325 0.237-0.553 0.571-1.029 0.976-1.503-0.226-0.784-0.48-2.385 0.292-4.333l0.113-0.285 0.292-0.091c0.516-0.16 1.103-0.058 1.598 0.090 0.519 0.155 1.057 0.398 1.532 0.644 0.478 0.247 0.911 0.506 1.223 0.702 0.101 0.064 0.19 0.121 0.264 0.169 1.225-0.316 2.524-0.478 3.81-0.478s2.585 0.162 3.81 0.478c0.074-0.049 0.163-0.106 0.264-0.17 0.312-0.197 0.745-0.456 1.223-0.704 0.475-0.246 1.013-0.489 1.532-0.644 0.495-0.148 1.084-0.25 1.601-0.087l0.291 0.092 0.112 0.283c0.77 1.951 0.517 3.548 0.292 4.331 0.405 0.465 0.765 0.936 1.031 1.48 0.327 0.667 0.497 1.41 0.497 2.349 0 3.157-0.974 5.019-2.557 6.096-1.192 0.811-2.665 1.122-4.074 1.312 0.322 0.622 0.519 1.423 0.519 2.398 0 1.055-0.005 2.234-0.009 3.213-0.002 0.335-0.003 0.645-0.005 0.92-0.003 0.53-0.005 0.925-0.005 1.092 0 0.067 0.025 0.103 0.035 0.112l0 0c0.003 0.002 0.014 0.013 0.049 0.021 0.034 0.008 0.098 0.015 0.204 0 5.952-1.999 10.002-7.665 10.002-14.314 0-8.291-6.72-14.61-15.060-14.61-8.318 0-14.66 6.297-14.66 14.61 0 6.64 4.166 12.313 10.108 14.327 0.107 0.015 0.172 0.008 0.206-0s0.045-0.018 0.047-0.020l0-0c0.007-0.007 0.033-0.042 0.033-0.113 0-0.134-0.002-0.484-0.005-0.939-0.001-0.193-0.003-0.405-0.004-0.628-0.003-0.49-0.006-1.030-0.008-1.53-0.451 0.047-1.068 0.079-1.725 0.016-1.277-0.122-2.943-0.639-3.532-2.398M5.596 20.994l1.638 3.25M5.596 20.994l0.051-0.638-0.022-0.002-0.022-0c-0.219-0.003-0.421 0.012-0.597 0.053-0.168 0.039-0.382 0.118-0.546 0.3-0.191 0.21-0.236 0.467-0.201 0.686 0.030 0.19 0.118 0.341 0.184 0.438 0.135 0.197 0.322 0.365 0.443 0.466 0.066 0.055 0.126 0.101 0.169 0.133 0.022 0.016 0.040 0.029 0.053 0.039l0.016 0.011 0.005 0.004 0.002 0.001 0.001 0.001c0 0 0 0 0.362-0.528M5.596 20.994l-0.1 0.962M6.633 24.464c-0.002-0.007-0.005-0.014-0.007-0.021l0.608-0.2M6.633 24.464c0 0 0 0 0 0.001l0.005 0.011 0.001 0.002c-0-0-0-0 0.596-0.234M6.633 24.464c-0.004-0.011-0.011-0.027-0.021-0.049-0.019-0.045-0.048-0.111-0.086-0.192-0.076-0.164-0.187-0.386-0.326-0.619-0.3-0.502-0.649-0.919-0.97-1.065l-0.050-0.023-0.046-0.031 0.362-0.528M7.234 24.244c0 0-0.713-1.819-1.737-2.288M9.573 24.782c0.003 0.001 0.005 0.002 0.008 0.003 0.001 0 0.002 0.001 0.003 0.001l0.033-0.149-0.019 0.063-0.025 0.082zM9.573 24.782c-0.085-0.029-0.17-0.061-0.254-0.097-0 0.008 0 0.016 0 0.024 0.043 0.068 0.126 0.125 0.231 0.15l0.023-0.077zM8.242 23.932c0.028-0.016 0.055-0.035 0.082-0.056l0 0 0.013-0.011c0.001-0 0.001-0.001 0.002-0.002 0.006-0.005 0.012-0.010 0.017-0.015s0.010-0.009 0.015-0.013c0.004-0.004 0.008-0.007 0.012-0.011 0.038-0.035 0.071-0.072 0.1-0.109l-0.243 0.216zM8.242 23.932c-0.001-0.013-0.002-0.025-0.001-0.038l0.001 0.038zM7.874 23.291l0.001 0.002c0.006-0.005 0.011-0.010 0.017-0.014l0.060 0.073c0.006-0.007 0.012-0.014 0.017-0.021 0.028-0.039 0.041-0.088 0.039-0.141-0.034 0.020-0.066 0.043-0.098 0.069-0.012 0.010-0.025 0.021-0.037 0.032zM7.874 23.291c-0.001 0.001-0.001 0.001-0.002 0.002M7.874 23.291l-0.227-0.295M7.872 23.293l-0.181-0.473c0.038 0.001 0.079 0.013 0.117 0.036-0.021 0.024-0.045 0.047-0.071 0.069M7.872 23.293l0.001 0.002c-0.003 0.003-0.007 0.006-0.010 0.009-0.007 0.006-0.014 0.012-0.020 0.018M7.872 23.293c-0.003 0.003-0.006 0.006-0.010 0.009-0.006 0.006-0.013 0.013-0.019 0.020M7.872 23.293l-0.236-0.29M7.872 23.293l-0.236-0.29M7.647 22.996c0.006-0.004 0.011-0.008 0.017-0.012s0.010-0.007 0.015-0.011c0.020-0.015 0.040-0.031 0.059-0.049M7.647 22.996c-0.003 0.002-0.007 0.005-0.011 0.007M7.647 22.996l-0.090-0.117c0.008-0.008 0.017-0.016 0.027-0.022 0.010-0.008 0.021-0.015 0.033-0.020M7.738 22.924c-0.011 0.009-0.022 0.018-0.033 0.027l-0.089-0.115M7.738 22.924c0.010-0.009 0.020-0.018 0.029-0.028l-0.151-0.061M7.616 22.836l0.020 0.167M7.016 22.358l-0.026 0.023 0.025-0.025M7.016 22.358c-0-0-0.001-0.001-0.001-0.001M7.016 22.358c0.003 0.003 0.005 0.005 0.008 0.008l-0.008-0.008zM7.015 22.357c-0.001-0.001-0.003-0.003-0.004-0.004M7.015 22.357l0.079-0.079 0.014-0.013 0.042-0.037-0.139 0.124M7.843 23.322c-0.015 0.016-0.029 0.032-0.044 0.050l0.023 0.019c-0.012-0.002-0.024-0.005-0.036-0.009 0.017-0.020 0.036-0.040 0.057-0.060zM7.636 23.003l-0.091-0.112c-0.026 0.034-0.038 0.079-0.037 0.129 0.008 0.013 0.016 0.026 0.023 0.039 0.035-0.015 0.070-0.034 0.104-0.056zM7.010 22.352c-0.004-0.004-0.009-0.008-0.013-0.012l0.013 0.012zM10.926 24.969c0.079-0.003 0.158-0.008 0.235-0.016 0.002 0.009 0.005 0.018 0.008 0.026-0.055 0.048-0.138 0.079-0.233 0.083-0.007 0-0.013 0-0.020 0-0.008 0.001-0.017 0.001-0.025 0.002-0.117 0.005-0.212-0.029-0.269-0.087-0.001-0.002-0.002-0.005-0.002-0.007 0.091 0.003 0.182 0.003 0.271 0 0.006-0 0.011-0 0.017-0.001 0.003 0 0.006-0 0.008-0s0.007-0 0.011-0zM9.9 24.768c-0.010 0.028-0.021 0.052-0.033 0.075l0.084-0.208c-0.005-0.017-0.013-0.034-0.023-0.050 0.002 0.043-0.002 0.091-0.015 0.141-0.004 0.014-0.008 0.028-0.013 0.042zM7.093 22.436c0.010 0.011 0.020 0.022 0.030 0.033 0.051 0.019 0.102 0.023 0.145 0.005 0.001-0.001 0.003-0.001 0.004-0.002l-0.092-0.114c0.009-0.008 0.019-0.015 0.028-0.022 0.001-0.001 0.002-0.001 0.002-0.002l-0.118 0.101zM6.448 21.811c0.066 0.028 0.136 0.025 0.186-0.007l-0.152-0.106-0.034 0.113zM12.527 26.106c0 0-0.249 0.053-0.64 0.096l0.641 0.555c-0.001-0.23-0.001-0.451-0.001-0.651zM11.878 24.894c0.061 0.032 0.142 0.046 0.23 0.031l-0.016-0.154c-0.068 0.020-0.139 0.039-0.212 0.058 0 0.003 0 0.006 0 0.009 0 0.019-0.001 0.038-0.002 0.056zM12.17 24.911l-0.037-0.152c0.088-0.027 0.172-0.055 0.251-0.083l0.021-0.003c0.003 0.022 0.004 0.043 0.004 0.064-0.038 0.075-0.126 0.14-0.239 0.174z"></path>
</symbol>
<symbol id="icon-instagram" viewBox="0 0 32 32">
<path d="M16.006 8.813c-3.975 0-7.181 3.206-7.181 7.181s3.206 7.181 7.181 7.181 7.181-3.206 7.181-7.181c0-3.975-3.206-7.181-7.181-7.181zM16.006 20.663c-2.569 0-4.669-2.094-4.669-4.669s2.094-4.669 4.669-4.669c2.575 0 4.669 2.094 4.669 4.669s-2.1 4.669-4.669 4.669zM25.156 8.519c0 0.931-0.75 1.675-1.675 1.675-0.931 0-1.675-0.75-1.675-1.675s0.75-1.675 1.675-1.675c0.925 0 1.675 0.75 1.675 1.675zM29.912 10.219c-0.106-2.244-0.619-4.231-2.262-5.869-1.637-1.638-3.625-2.15-5.869-2.263-2.312-0.131-9.244-0.131-11.556 0-2.237 0.106-4.225 0.619-5.869 2.256s-2.15 3.625-2.263 5.869c-0.131 2.313-0.131 9.244 0 11.556 0.106 2.244 0.619 4.231 2.263 5.869s3.625 2.15 5.869 2.263c2.313 0.131 9.244 0.131 11.556 0 2.244-0.106 4.231-0.619 5.869-2.263 1.637-1.637 2.15-3.625 2.262-5.869 0.131-2.312 0.131-9.237 0-11.55zM26.925 24.25c-0.488 1.225-1.431 2.169-2.663 2.663-1.844 0.731-6.219 0.562-8.256 0.562s-6.419 0.163-8.256-0.562c-1.225-0.488-2.169-1.431-2.662-2.663-0.731-1.844-0.563-6.219-0.563-8.256s-0.162-6.419 0.563-8.256c0.487-1.225 1.431-2.169 2.662-2.662 1.844-0.731 6.219-0.563 8.256-0.563s6.419-0.162 8.256 0.563c1.225 0.487 2.169 1.431 2.663 2.662 0.731 1.844 0.562 6.219 0.562 8.256s0.169 6.419-0.562 8.256z"></path>
</symbol>
<symbol id="icon-linkedin" viewBox="0 0 31 32">
<path d="M26.923 2.502h-23.083c-1.058 0-1.917 0.871-1.917 1.941v23.041c0 1.070 0.859 1.941 1.917 1.941h23.083c1.058 0 1.923-0.871 1.923-1.941v-23.041c0-1.070-0.865-1.941-1.923-1.941zM10.060 25.579h-3.99v-12.849h3.996v12.849h-0.006zM8.065 10.976c-1.28 0-2.314-1.040-2.314-2.314s1.034-2.314 2.314-2.314c1.274 0 2.314 1.040 2.314 2.314 0 1.28-1.034 2.314-2.314 2.314zM25.018 25.579h-3.99v-6.25c0-1.49-0.030-3.407-2.073-3.407-2.079 0-2.398 1.623-2.398 3.299v6.358h-3.99v-12.849h3.828v1.755h0.054c0.535-1.010 1.839-2.073 3.78-2.073 4.039 0 4.79 2.662 4.79 6.124v7.043z"></path>
</symbol>
</defs>
</svg>
