<!-- Generated by IcoMoon.io -->
<svg version="1.1" xmlns="http://www.w3.org/2000/svg" width="985" height="1024" viewBox="0 0 985 1024">
<g id="icomoon-ignore">
</g>
<path d="M861.538 80.067h-738.654c-33.846 0-61.346 27.885-61.346 62.115v737.307c0 34.233 27.5 62.117 61.346 62.117h738.654c33.847 0 61.538-27.884 61.538-62.117v-737.307c0-34.231-27.691-62.115-61.538-62.115zM321.923 818.53h-127.692v-411.156h127.885v411.156h-0.192zM258.077 351.221c-40.961 0-74.038-33.269-74.038-74.038s33.077-74.038 74.038-74.038c40.769 0 74.039 33.269 74.039 74.038 0 40.962-33.077 74.038-74.039 74.038zM800.575 818.53h-127.689v-200.003c0-47.691-0.965-109.036-66.347-109.036-66.54 0-76.733 51.921-76.733 105.574v203.465h-127.689v-411.156h122.498v56.155h1.733c17.113-32.307 58.845-66.347 120.958-66.347 129.233 0 153.269 85.193 153.269 195.962v225.386z"></path>
</svg>
